<?xml version="1.0" encoding="utf-8"?>
<!-- Generator: Adobe Illustrator 15.1.0, SVG Export Plug-In . SVG Version: 6.00 Build 0)  -->
<!DOCTYPE svg PUBLIC "-//W3C//DTD SVG 1.1//EN" "http://www.w3.org/Graphics/SVG/1.1/DTD/svg11.dtd">
<svg version="1.1" id="Layer_1" xmlns="http://www.w3.org/2000/svg" xmlns:xlink="http://www.w3.org/1999/xlink" x="0px" y="0px"
	 width="360px" height="360px" viewBox="0 0 360 360" enable-background="new 0 0 360 360" xml:space="preserve">
<path fill="#FFFFFF" stroke="#FFFFFF" stroke-miterlimit="10" d="M340.102,322.669c0,9.979-8.092,18.07-18.071,18.07H37.725
	c-9.98,0-18.07-8.092-18.07-18.07V38.361c0-9.979,8.09-18.07,18.07-18.07H322.03c9.979,0,18.071,8.091,18.071,18.07V322.669z"/>
<g>
	<path d="M60.752,171.478l30.293-78.88h11.246l32.284,78.88h-11.891l-9.201-23.89H80.5l-8.663,23.89H60.752z M83.513,139.086h26.742
		l-8.232-21.845c-2.511-6.636-4.376-12.088-5.596-16.357c-1.005,5.058-2.421,10.08-4.251,15.065L83.513,139.086z"/>
	<path d="M143.076,171.478v-78.88h34.974c7.031,0,12.375,0.708,16.035,2.125c3.658,1.417,6.582,3.919,8.771,7.506
		c2.188,3.587,3.282,7.551,3.282,11.891c0,5.596-1.813,10.313-5.435,14.151c-3.624,3.839-9.22,6.278-16.788,7.318
		c2.762,1.327,4.86,2.636,6.296,3.928c3.048,2.798,5.937,6.295,8.662,10.492l13.721,21.469h-13.128l-10.438-16.411
		c-3.05-4.735-5.561-8.357-7.533-10.869c-1.973-2.51-3.74-4.269-5.3-5.273c-1.561-1.004-3.148-1.704-4.762-2.099
		c-1.184-0.25-3.121-0.376-5.811-0.376h-12.106v35.028H143.076z M153.515,127.41h22.438c4.77,0,8.501-0.493,11.191-1.479
		c2.69-0.986,4.735-2.564,6.134-4.735c1.399-2.17,2.099-4.528,2.099-7.076c0-3.73-1.354-6.797-4.063-9.201
		c-2.709-2.402-6.986-3.605-12.833-3.605h-24.966V127.41z"/>
	<path d="M222.172,171.478v-78.88h15.711l18.671,55.851c1.722,5.202,2.978,9.093,3.767,11.676c0.896-2.87,2.295-7.084,4.197-12.645
		l18.886-54.882h14.043v78.88h-10.062v-66.021l-22.921,66.021h-9.417l-22.813-67.15v67.15H222.172z"/>
</g>
<path d="M298.84,271.77c0,9.979-8.092,18.07-18.07,18.07H78.985c-9.979,0-18.07-8.092-18.07-18.07v-63.999
	c0-9.979,8.091-18.07,18.07-18.07H280.77c9.979,0,18.07,8.091,18.07,18.07V271.77z"/>
<g>
	<path fill="#FFFFFF" d="M67.55,248.745l9.014-1.164c0.506,2.967,1.916,5.24,4.228,6.82c2.312,1.581,5.545,2.371,9.697,2.371
		c4.186,0,7.292-0.7,9.317-2.101c2.026-1.399,3.039-3.043,3.039-4.929c0-1.69-0.895-3.021-2.684-3.992
		c-1.249-0.666-4.355-1.512-9.317-2.537c-6.684-1.387-11.318-2.586-13.9-3.598s-4.541-2.413-5.874-4.201
		c-1.334-1.788-2-3.764-2-5.927c0-1.969,0.548-3.791,1.646-5.469c1.097-1.678,2.591-3.071,4.481-4.181
		c1.418-0.859,3.35-1.587,5.798-2.184c2.447-0.596,5.072-0.894,7.874-0.894c4.22,0,7.925,0.499,11.115,1.497
		c3.19,0.998,5.545,2.35,7.064,4.055c1.519,1.706,2.565,3.986,3.139,6.842l-8.912,0.998c-0.405-2.272-1.579-4.048-3.52-5.323
		c-1.941-1.275-4.684-1.913-8.229-1.913c-4.187,0-7.174,0.568-8.963,1.705c-1.79,1.138-2.684,2.468-2.684,3.993
		c0,0.971,0.371,1.844,1.114,2.62c0.742,0.805,1.907,1.47,3.494,1.996c0.912,0.277,3.596,0.915,8.052,1.913
		c6.448,1.414,10.946,2.572,13.495,3.473c2.548,0.901,4.549,2.212,6,3.931c1.451,1.72,2.178,3.854,2.178,6.405
		c0,2.495-0.886,4.846-2.659,7.05s-4.33,3.909-7.672,5.116c-3.342,1.206-7.123,1.809-11.343,1.809
		c-6.988,0-12.314-1.191-15.977-3.577C70.899,256.967,68.563,253.432,67.55,248.745z"/>
	<path fill="#FFFFFF" d="M142.951,255.233l1.316,6.613c-2.566,0.443-4.861,0.665-6.887,0.665c-3.309,0-5.874-0.43-7.697-1.289
		c-1.823-0.859-3.106-1.989-3.849-3.39c-0.743-1.399-1.114-4.347-1.114-8.838v-25.413h-6.685v-5.822h6.685v-10.938l9.064-4.492
		v15.431h9.166v5.822h-9.166v25.829c0,2.135,0.16,3.508,0.481,4.117c0.32,0.61,0.843,1.096,1.57,1.456
		c0.726,0.36,1.764,0.54,3.114,0.54C139.963,255.524,141.296,255.428,142.951,255.233z"/>
	<path fill="#FFFFFF" d="M151.761,261.93v-44.17h8.204v6.696c2.093-3.134,4.025-5.199,5.798-6.197s3.722-1.497,5.849-1.497
		c3.072,0,6.195,0.804,9.368,2.412l-3.139,6.945c-2.229-1.081-4.457-1.622-6.685-1.622c-1.992,0-3.781,0.493-5.368,1.477
		c-1.587,0.984-2.718,2.351-3.393,4.097c-1.013,2.662-1.52,5.573-1.52,8.734v23.125H151.761z"/>
	<path fill="#FFFFFF" d="M221.49,256.481c-3.376,2.356-6.625,4.021-9.747,4.991c-3.123,0.97-6.475,1.455-10.052,1.455
		c-5.908,0-10.449-1.186-13.622-3.556c-3.174-2.371-4.76-5.4-4.76-9.088c0-2.163,0.599-4.139,1.797-5.927
		c1.198-1.789,2.769-3.224,4.71-4.305c1.94-1.082,4.127-1.899,6.558-2.454c1.789-0.388,4.489-0.763,8.103-1.123
		c7.358-0.721,12.777-1.58,16.255-2.578c0.033-1.026,0.05-1.678,0.05-1.955c0-3.05-0.86-5.199-2.582-6.447
		c-2.329-1.69-5.79-2.537-10.381-2.537c-4.288,0-7.453,0.618-9.495,1.852c-2.043,1.233-3.553,3.417-4.532,6.551l-8.912-0.999
		c0.811-3.133,2.144-5.662,4.001-7.59c1.855-1.927,4.54-3.411,8.051-4.45c3.511-1.04,7.579-1.56,12.204-1.56
		c4.591,0,8.321,0.443,11.191,1.33c2.869,0.888,4.979,2.004,6.33,3.349c1.35,1.345,2.295,3.043,2.835,5.095
		c0.304,1.275,0.456,3.577,0.456,6.904v9.982c0,6.96,0.194,11.361,0.582,13.205s1.156,3.611,2.305,5.303h-9.521
		C222.368,260.377,221.761,258.561,221.49,256.481z M220.731,239.762c-3.31,1.109-8.271,2.052-14.888,2.828
		c-3.748,0.443-6.398,0.942-7.95,1.497c-1.554,0.555-2.752,1.366-3.596,2.434c-0.845,1.067-1.266,2.253-1.266,3.556
		c0,1.996,0.919,3.66,2.76,4.991c1.839,1.331,4.532,1.996,8.076,1.996c3.511,0,6.634-0.63,9.368-1.893
		c2.734-1.261,4.743-2.987,6.026-5.178c0.979-1.691,1.469-4.187,1.469-7.486V239.762z"/>
	<path fill="#FFFFFF" d="M244.075,278.857V217.76h8.305v5.739c1.958-2.246,4.169-3.931,6.634-5.054
		c2.464-1.122,5.452-1.684,8.963-1.684c4.591,0,8.642,0.971,12.153,2.911c3.511,1.941,6.161,4.679,7.95,8.214
		s2.684,7.411,2.684,11.625c0,4.52-0.987,8.589-2.962,12.207c-1.975,3.619-4.845,6.392-8.608,8.318
		c-3.765,1.927-7.723,2.891-11.875,2.891c-3.038,0-5.765-0.527-8.178-1.58c-2.414-1.054-4.397-2.385-5.95-3.993v21.503H244.075z
		 M252.329,240.094c0,5.685,1.401,9.886,4.203,12.603c2.802,2.718,6.194,4.076,10.179,4.076c4.051,0,7.52-1.407,10.406-4.222
		c2.887-2.813,4.329-7.175,4.329-13.08c0-5.629-1.409-9.844-4.228-12.645c-2.819-2.8-6.188-4.2-10.103-4.2
		c-3.883,0-7.317,1.49-10.306,4.471C253.823,230.078,252.329,234.41,252.329,240.094z"/>
</g>
<path fill="#FFFFFF" d="M183.566,20.319c0,1.647-1.65,2.983-3.69,2.983l0,0c-2.038,0-3.69-1.336-3.69-2.983V3.27
	c0-1.647,1.652-2.983,3.69-2.983l0,0c2.04,0,3.69,1.336,3.69,2.983V20.319z"/>
<path fill="#FFFFFF" d="M199.835,20.319c0,1.647-1.652,2.983-3.692,2.983l0,0c-2.038,0-3.689-1.336-3.689-2.983V3.27
	c0-1.647,1.651-2.983,3.689-2.983l0,0c2.04,0,3.692,1.336,3.692,2.983V20.319z"/>
<path fill="#FFFFFF" d="M215.764,20.319c0,1.647-1.651,2.983-3.69,2.983l0,0c-2.039,0-3.691-1.336-3.691-2.983V3.27
	c0-1.647,1.652-2.983,3.691-2.983l0,0c2.039,0,3.69,1.336,3.69,2.983V20.319z"/>
<path fill="#FFFFFF" d="M231.692,20.319c0,1.647-1.651,2.983-3.69,2.983l0,0c-2.039,0-3.689-1.336-3.689-2.983V3.27
	c0-1.647,1.65-2.983,3.689-2.983l0,0c2.039,0,3.69,1.336,3.69,2.983V20.319z"/>
<path fill="#FFFFFF" d="M247.622,20.319c0,1.647-1.652,2.983-3.691,2.983l0,0c-2.039,0-3.689-1.336-3.689-2.983V3.27
	c0-1.647,1.65-2.983,3.689-2.983l0,0c2.039,0,3.691,1.336,3.691,2.983V20.319z"/>
<path fill="#FFFFFF" d="M263.551,20.319c0,1.647-1.651,2.983-3.69,2.983l0,0c-2.038,0-3.69-1.336-3.69-2.983V3.27
	c0-1.647,1.652-2.983,3.69-2.983l0,0c2.039,0,3.69,1.336,3.69,2.983V20.319z"/>
<path fill="#FFFFFF" d="M279.479,20.319c0,1.647-1.651,2.983-3.69,2.983l0,0c-2.038,0-3.689-1.336-3.689-2.983V3.27
	c0-1.647,1.651-2.983,3.689-2.983l0,0c2.039,0,3.69,1.336,3.69,2.983V20.319z"/>
<path fill="#FFFFFF" d="M295.409,20.319c0,1.647-1.652,2.983-3.691,2.983l0,0c-2.038,0-3.689-1.336-3.689-2.983V3.27
	c0-1.647,1.651-2.983,3.689-2.983l0,0c2.039,0,3.691,1.336,3.691,2.983V20.319z"/>
<path fill="#FFFFFF" d="M56.472,20.319c0,1.647-1.652,2.983-3.691,2.983l0,0c-2.038,0-3.689-1.336-3.689-2.983V3.27
	c0-1.647,1.651-2.983,3.689-2.983l0,0c2.04,0,3.691,1.336,3.691,2.983V20.319z"/>
<path fill="#FFFFFF" d="M72.401,20.319c0,1.647-1.652,2.983-3.691,2.983l0,0c-2.038,0-3.69-1.336-3.69-2.983V3.27
	c0-1.647,1.652-2.983,3.69-2.983l0,0c2.04,0,3.691,1.336,3.691,2.983V20.319z"/>
<path fill="#FFFFFF" d="M88.33,20.319c0,1.647-1.651,2.983-3.69,2.983l0,0c-2.039,0-3.69-1.336-3.69-2.983V3.27
	c0-1.647,1.652-2.983,3.69-2.983l0,0c2.039,0,3.69,1.336,3.69,2.983V20.319z"/>
<path fill="#FFFFFF" d="M104.259,20.319c0,1.647-1.651,2.983-3.691,2.983l0,0c-2.039,0-3.689-1.336-3.689-2.983V3.27
	c0-1.647,1.651-2.983,3.689-2.983l0,0c2.04,0,3.691,1.336,3.691,2.983V20.319z"/>
<path fill="#FFFFFF" d="M120.188,20.319c0,1.647-1.651,2.983-3.691,2.983l0,0c-2.039,0-3.689-1.336-3.689-2.983V3.27
	c0-1.647,1.651-2.983,3.689-2.983l0,0c2.04,0,3.691,1.336,3.691,2.983V20.319z"/>
<path fill="#FFFFFF" d="M136.118,20.319c0,1.647-1.652,2.983-3.691,2.983l0,0c-2.038,0-3.69-1.336-3.69-2.983V3.27
	c0-1.647,1.652-2.983,3.69-2.983l0,0c2.04,0,3.691,1.336,3.691,2.983V20.319z"/>
<path fill="#FFFFFF" d="M152.047,20.319c0,1.647-1.652,2.983-3.692,2.983l0,0c-2.038,0-3.689-1.336-3.689-2.983V3.27
	c0-1.647,1.651-2.983,3.689-2.983l0,0c2.04,0,3.692,1.336,3.692,2.983V20.319z"/>
<path fill="#FFFFFF" d="M167.976,20.319c0,1.647-1.651,2.983-3.691,2.983l0,0c-2.038,0-3.69-1.336-3.69-2.983V3.27
	c0-1.647,1.652-2.983,3.69-2.983l0,0c2.04,0,3.691,1.336,3.691,2.983V20.319z"/>
<path fill="#FFFFFF" d="M311.338,20.319c0,1.647-1.651,2.983-3.69,2.983l0,0c-2.038,0-3.69-1.336-3.69-2.983V3.27
	c0-1.647,1.652-2.983,3.69-2.983l0,0c2.039,0,3.69,1.336,3.69,2.983V20.319z"/>
<path fill="#FFFFFF" d="M183.566,357.63c0,1.648-1.65,2.985-3.69,2.985l0,0c-2.038,0-3.69-1.337-3.69-2.985v-17.048
	c0-1.649,1.652-2.984,3.69-2.984l0,0c2.04,0,3.69,1.335,3.69,2.984V357.63z"/>
<path fill="#FFFFFF" d="M199.835,357.63c0,1.648-1.652,2.985-3.692,2.985l0,0c-2.038,0-3.689-1.337-3.689-2.985v-17.048
	c0-1.649,1.651-2.984,3.689-2.984l0,0c2.04,0,3.692,1.335,3.692,2.984V357.63z"/>
<path fill="#FFFFFF" d="M215.764,357.63c0,1.648-1.651,2.985-3.69,2.985l0,0c-2.039,0-3.691-1.337-3.691-2.985v-17.048
	c0-1.649,1.652-2.984,3.691-2.984l0,0c2.039,0,3.69,1.335,3.69,2.984V357.63z"/>
<path fill="#FFFFFF" d="M231.692,357.63c0,1.648-1.651,2.985-3.69,2.985l0,0c-2.039,0-3.689-1.337-3.689-2.985v-17.048
	c0-1.649,1.65-2.984,3.689-2.984l0,0c2.039,0,3.69,1.335,3.69,2.984V357.63z"/>
<path fill="#FFFFFF" d="M247.622,357.63c0,1.648-1.652,2.985-3.691,2.985l0,0c-2.039,0-3.689-1.337-3.689-2.985v-17.048
	c0-1.649,1.65-2.984,3.689-2.984l0,0c2.039,0,3.691,1.335,3.691,2.984V357.63z"/>
<path fill="#FFFFFF" d="M263.551,357.63c0,1.648-1.651,2.985-3.69,2.985l0,0c-2.038,0-3.69-1.337-3.69-2.985v-17.048
	c0-1.649,1.652-2.984,3.69-2.984l0,0c2.039,0,3.69,1.335,3.69,2.984V357.63z"/>
<path fill="#FFFFFF" d="M279.479,357.63c0,1.648-1.651,2.985-3.69,2.985l0,0c-2.038,0-3.689-1.337-3.689-2.985v-17.048
	c0-1.649,1.651-2.984,3.689-2.984l0,0c2.039,0,3.69,1.335,3.69,2.984V357.63z"/>
<path fill="#FFFFFF" d="M295.409,357.63c0,1.648-1.652,2.985-3.691,2.985l0,0c-2.038,0-3.689-1.337-3.689-2.985v-17.048
	c0-1.649,1.651-2.984,3.689-2.984l0,0c2.039,0,3.691,1.335,3.691,2.984V357.63z"/>
<path fill="#FFFFFF" d="M56.472,357.63c0,1.648-1.652,2.985-3.691,2.985l0,0c-2.038,0-3.689-1.337-3.689-2.985v-17.048
	c0-1.649,1.651-2.984,3.689-2.984l0,0c2.04,0,3.691,1.335,3.691,2.984V357.63z"/>
<path fill="#FFFFFF" d="M72.401,357.63c0,1.648-1.652,2.985-3.691,2.985l0,0c-2.038,0-3.69-1.337-3.69-2.985v-17.048
	c0-1.649,1.652-2.984,3.69-2.984l0,0c2.04,0,3.691,1.335,3.691,2.984V357.63z"/>
<path fill="#FFFFFF" d="M88.33,357.63c0,1.648-1.651,2.985-3.69,2.985l0,0c-2.039,0-3.69-1.337-3.69-2.985v-17.048
	c0-1.649,1.652-2.984,3.69-2.984l0,0c2.039,0,3.69,1.335,3.69,2.984V357.63z"/>
<path fill="#FFFFFF" d="M104.259,357.63c0,1.648-1.651,2.985-3.691,2.985l0,0c-2.039,0-3.689-1.337-3.689-2.985v-17.048
	c0-1.649,1.651-2.984,3.689-2.984l0,0c2.04,0,3.691,1.335,3.691,2.984V357.63z"/>
<path fill="#FFFFFF" d="M120.188,357.63c0,1.648-1.651,2.985-3.691,2.985l0,0c-2.039,0-3.689-1.337-3.689-2.985v-17.048
	c0-1.649,1.651-2.984,3.689-2.984l0,0c2.04,0,3.691,1.335,3.691,2.984V357.63z"/>
<path fill="#FFFFFF" d="M136.118,357.63c0,1.648-1.652,2.985-3.691,2.985l0,0c-2.038,0-3.69-1.337-3.69-2.985v-17.048
	c0-1.649,1.652-2.984,3.69-2.984l0,0c2.04,0,3.691,1.335,3.691,2.984V357.63z"/>
<path fill="#FFFFFF" d="M152.047,357.63c0,1.648-1.652,2.985-3.692,2.985l0,0c-2.038,0-3.689-1.337-3.689-2.985v-17.048
	c0-1.649,1.651-2.984,3.689-2.984l0,0c2.04,0,3.692,1.335,3.692,2.984V357.63z"/>
<path fill="#FFFFFF" d="M167.976,357.63c0,1.648-1.651,2.985-3.691,2.985l0,0c-2.038,0-3.69-1.337-3.69-2.985v-17.048
	c0-1.649,1.652-2.984,3.69-2.984l0,0c2.04,0,3.691,1.335,3.691,2.984V357.63z"/>
<path fill="#FFFFFF" d="M311.338,357.63c0,1.648-1.651,2.985-3.69,2.985l0,0c-2.038,0-3.69-1.337-3.69-2.985v-17.048
	c0-1.649,1.652-2.984,3.69-2.984l0,0c2.039,0,3.69,1.335,3.69,2.984V357.63z"/>
<path fill="#FFFFFF" d="M19.683,177.164c1.647,0,2.983,1.651,2.983,3.691l0,0c0,2.037-1.336,3.69-2.983,3.69H2.633
	c-1.647,0-2.983-1.653-2.983-3.69l0,0c0-2.04,1.336-3.691,2.983-3.691H19.683z"/>
<path fill="#FFFFFF" d="M19.683,160.896c1.647,0,2.983,1.651,2.983,3.69l0,0c0,2.039-1.336,3.69-2.983,3.69H2.633
	c-1.647,0-2.983-1.652-2.983-3.69l0,0c0-2.04,1.336-3.69,2.983-3.69H19.683z"/>
<path fill="#FFFFFF" d="M19.683,144.967c1.647,0,2.983,1.651,2.983,3.69l0,0c0,2.039-1.336,3.689-2.983,3.689H2.633
	c-1.647,0-2.983-1.651-2.983-3.689l0,0c0-2.04,1.336-3.69,2.983-3.69H19.683z"/>
<path fill="#FFFFFF" d="M19.683,129.038c1.647,0,2.983,1.651,2.983,3.69l0,0c0,2.038-1.336,3.69-2.983,3.69H2.633
	c-1.647,0-2.983-1.652-2.983-3.69l0,0c0-2.04,1.336-3.69,2.983-3.69H19.683z"/>
<path fill="#FFFFFF" d="M19.683,113.108c1.647,0,2.983,1.651,2.983,3.691l0,0c0,2.038-1.336,3.689-2.983,3.689H2.633
	c-1.647,0-2.983-1.651-2.983-3.689l0,0c0-2.04,1.336-3.691,2.983-3.691H19.683z"/>
<path fill="#FFFFFF" d="M19.683,97.179c1.647,0,2.983,1.652,2.983,3.691l0,0c0,2.038-1.336,3.689-2.983,3.689H2.633
	c-1.647,0-2.983-1.651-2.983-3.689l0,0c0-2.04,1.336-3.691,2.983-3.691H19.683z"/>
<path fill="#FFFFFF" d="M19.683,81.25c1.647,0,2.983,1.651,2.983,3.691l0,0c0,2.039-1.336,3.69-2.983,3.69H2.633
	c-1.647,0-2.983-1.651-2.983-3.69l0,0c0-2.04,1.336-3.691,2.983-3.691H19.683z"/>
<path fill="#FFFFFF" d="M19.683,65.321c1.647,0,2.983,1.651,2.983,3.691l0,0c0,2.038-1.336,3.689-2.983,3.689H2.633
	c-1.647,0-2.983-1.651-2.983-3.689l0,0c0-2.04,1.336-3.691,2.983-3.691H19.683z"/>
<path fill="#FFFFFF" d="M19.683,304.259c1.647,0,2.983,1.65,2.983,3.691l0,0c0,2.038-1.336,3.688-2.983,3.688H2.633
	c-1.647,0-2.983-1.649-2.983-3.688l0,0c0-2.041,1.336-3.691,2.983-3.691H19.683z"/>
<path fill="#FFFFFF" d="M19.683,288.329c1.647,0,2.983,1.65,2.983,3.692l0,0c0,2.038-1.336,3.688-2.983,3.688H2.633
	c-1.647,0-2.983-1.649-2.983-3.688l0,0c0-2.042,1.336-3.692,2.983-3.692H19.683z"/>
<path fill="#FFFFFF" d="M19.683,272.4c1.647,0,2.983,1.65,2.983,3.692l0,0c0,2.037-1.336,3.687-2.983,3.687H2.633
	c-1.647,0-2.983-1.649-2.983-3.687l0,0c0-2.042,1.336-3.692,2.983-3.692H19.683z"/>
<path fill="#FFFFFF" d="M19.683,256.47c1.647,0,2.983,1.653,2.983,3.691l0,0c0,2.038-1.336,3.69-2.983,3.69H2.633
	c-1.647,0-2.983-1.652-2.983-3.69l0,0c0-2.038,1.336-3.691,2.983-3.691H19.683z"/>
<path fill="#FFFFFF" d="M19.683,240.541c1.647,0,2.983,1.653,2.983,3.691l0,0c0,2.037-1.336,3.69-2.983,3.69H2.633
	c-1.647,0-2.983-1.653-2.983-3.69l0,0c0-2.038,1.336-3.691,2.983-3.691H19.683z"/>
<path fill="#FFFFFF" d="M19.683,224.612c1.647,0,2.983,1.652,2.983,3.69l0,0c0,2.038-1.336,3.691-2.983,3.691H2.633
	c-1.647,0-2.983-1.653-2.983-3.691l0,0c0-2.038,1.336-3.69,2.983-3.69H19.683z"/>
<path fill="#FFFFFF" d="M19.683,208.682c1.647,0,2.983,1.654,2.983,3.692l0,0c0,2.038-1.336,3.69-2.983,3.69H2.633
	c-1.647,0-2.983-1.652-2.983-3.69l0,0c0-2.038,1.336-3.692,2.983-3.692H19.683z"/>
<path fill="#FFFFFF" d="M19.683,192.753c1.647,0,2.983,1.654,2.983,3.691l0,0c0,2.038-1.336,3.691-2.983,3.691H2.633
	c-1.647,0-2.983-1.653-2.983-3.691l0,0c0-2.037,1.336-3.691,2.983-3.691H19.683z"/>
<path fill="#FFFFFF" d="M19.683,49.392c1.647,0,2.983,1.651,2.983,3.691l0,0c0,2.039-1.336,3.689-2.983,3.689H2.633
	c-1.647,0-2.983-1.651-2.983-3.689l0,0c0-2.04,1.336-3.691,2.983-3.691H19.683z"/>
<path fill="#FFFFFF" d="M356.993,177.164c1.648,0,2.985,1.651,2.985,3.691l0,0c0,2.037-1.337,3.69-2.985,3.69h-17.048
	c-1.649,0-2.984-1.653-2.984-3.69l0,0c0-2.04,1.335-3.691,2.984-3.691H356.993z"/>
<path fill="#FFFFFF" d="M356.993,160.896c1.648,0,2.985,1.651,2.985,3.69l0,0c0,2.039-1.337,3.69-2.985,3.69h-17.048
	c-1.649,0-2.984-1.652-2.984-3.69l0,0c0-2.04,1.335-3.69,2.984-3.69H356.993z"/>
<path fill="#FFFFFF" d="M356.993,144.967c1.648,0,2.985,1.651,2.985,3.69l0,0c0,2.039-1.337,3.689-2.985,3.689h-17.048
	c-1.649,0-2.984-1.651-2.984-3.689l0,0c0-2.04,1.335-3.69,2.984-3.69H356.993z"/>
<path fill="#FFFFFF" d="M356.993,129.038c1.648,0,2.985,1.651,2.985,3.69l0,0c0,2.038-1.337,3.69-2.985,3.69h-17.048
	c-1.649,0-2.984-1.652-2.984-3.69l0,0c0-2.04,1.335-3.69,2.984-3.69H356.993z"/>
<path fill="#FFFFFF" d="M356.993,113.108c1.648,0,2.985,1.651,2.985,3.691l0,0c0,2.038-1.337,3.689-2.985,3.689h-17.048
	c-1.649,0-2.984-1.651-2.984-3.689l0,0c0-2.04,1.335-3.691,2.984-3.691H356.993z"/>
<path fill="#FFFFFF" d="M356.993,97.179c1.648,0,2.985,1.652,2.985,3.691l0,0c0,2.038-1.337,3.689-2.985,3.689h-17.048
	c-1.649,0-2.984-1.651-2.984-3.689l0,0c0-2.04,1.335-3.691,2.984-3.691H356.993z"/>
<path fill="#FFFFFF" d="M356.993,81.25c1.648,0,2.985,1.651,2.985,3.691l0,0c0,2.039-1.337,3.69-2.985,3.69h-17.048
	c-1.649,0-2.984-1.651-2.984-3.69l0,0c0-2.04,1.335-3.691,2.984-3.691H356.993z"/>
<path fill="#FFFFFF" d="M356.993,65.321c1.648,0,2.985,1.651,2.985,3.691l0,0c0,2.038-1.337,3.689-2.985,3.689h-17.048
	c-1.649,0-2.984-1.651-2.984-3.689l0,0c0-2.04,1.335-3.691,2.984-3.691H356.993z"/>
<path fill="#FFFFFF" d="M356.993,304.259c1.648,0,2.985,1.65,2.985,3.691l0,0c0,2.038-1.337,3.688-2.985,3.688h-17.048
	c-1.649,0-2.984-1.649-2.984-3.688l0,0c0-2.041,1.335-3.691,2.984-3.691H356.993z"/>
<path fill="#FFFFFF" d="M356.993,288.329c1.648,0,2.985,1.65,2.985,3.692l0,0c0,2.038-1.337,3.688-2.985,3.688h-17.048
	c-1.649,0-2.984-1.649-2.984-3.688l0,0c0-2.042,1.335-3.692,2.984-3.692H356.993z"/>
<path fill="#FFFFFF" d="M356.993,272.4c1.648,0,2.985,1.65,2.985,3.692l0,0c0,2.037-1.337,3.687-2.985,3.687h-17.048
	c-1.649,0-2.984-1.649-2.984-3.687l0,0c0-2.042,1.335-3.692,2.984-3.692H356.993z"/>
<path fill="#FFFFFF" d="M356.993,256.47c1.648,0,2.985,1.653,2.985,3.691l0,0c0,2.038-1.337,3.69-2.985,3.69h-17.048
	c-1.649,0-2.984-1.652-2.984-3.69l0,0c0-2.038,1.335-3.691,2.984-3.691H356.993z"/>
<path fill="#FFFFFF" d="M356.993,240.541c1.648,0,2.985,1.653,2.985,3.691l0,0c0,2.037-1.337,3.69-2.985,3.69h-17.048
	c-1.649,0-2.984-1.653-2.984-3.69l0,0c0-2.038,1.335-3.691,2.984-3.691H356.993z"/>
<path fill="#FFFFFF" d="M356.993,224.612c1.648,0,2.985,1.652,2.985,3.69l0,0c0,2.038-1.337,3.691-2.985,3.691h-17.048
	c-1.649,0-2.984-1.653-2.984-3.691l0,0c0-2.038,1.335-3.69,2.984-3.69H356.993z"/>
<path fill="#FFFFFF" d="M356.993,208.682c1.648,0,2.985,1.654,2.985,3.692l0,0c0,2.038-1.337,3.69-2.985,3.69h-17.048
	c-1.649,0-2.984-1.652-2.984-3.69l0,0c0-2.038,1.335-3.692,2.984-3.692H356.993z"/>
<path fill="#FFFFFF" d="M356.993,192.753c1.648,0,2.985,1.654,2.985,3.691l0,0c0,2.038-1.337,3.691-2.985,3.691h-17.048
	c-1.649,0-2.984-1.653-2.984-3.691l0,0c0-2.037,1.335-3.691,2.984-3.691H356.993z"/>
<path fill="#FFFFFF" d="M356.993,49.392c1.648,0,2.985,1.651,2.985,3.691l0,0c0,2.039-1.337,3.689-2.985,3.689h-17.048
	c-1.649,0-2.984-1.651-2.984-3.689l0,0c0-2.04,1.335-3.691,2.984-3.691H356.993z"/>
</svg>
