<?xml version="1.0" encoding="utf-8"?>
<!-- Generator: Adobe Illustrator 15.1.0, SVG Export Plug-In . SVG Version: 6.00 Build 0)  -->
<!DOCTYPE svg PUBLIC "-//W3C//DTD SVG 1.1//EN" "http://www.w3.org/Graphics/SVG/1.1/DTD/svg11.dtd">
<svg version="1.1" id="Layer_1" xmlns="http://www.w3.org/2000/svg" xmlns:xlink="http://www.w3.org/1999/xlink" x="0px" y="0px"
	 width="612px" height="192.723px" viewBox="0 0 612 192.723" enable-background="new 0 0 612 192.723" xml:space="preserve">
<g>
	<path fill-rule="evenodd" clip-rule="evenodd" fill="#FFFFFF" d="M0,0.54c44.55,2.717,64.73,31.476,82.104,64.279
		c7.865,14.85,15.834,31.884,24.847,48.074c8.252,14.822,19.021,33.265,34.57,38.891c19.299,6.984,33.034-4.815,41.052-14.044
		c15.636-17.996,27.814-47.328,38.352-67.52c14.316-27.433,33.985-61.905,72.921-68.6C317-2.361,335.66,5.475,348.942,15.125
		c13.042,9.475,24.956,24.296,32.949,37.811c8.399,14.2,15.885,29.701,24.308,46.454c7.898,15.711,15.965,31.996,27.548,43.212
		c7.123,6.898,19.504,13.954,34.57,9.723c16.459-4.622,27.966-22.626,36.19-37.271c9.376-16.695,16.721-33.835,24.847-49.154
		c17.538-33.063,38.421-62.622,82.645-65.359c0,12.964,0,25.928,0,38.892c-7.752,0.599-12.063,2.072-16.745,4.861
		c-15.968,9.513-25.555,28.998-34.57,46.454c-8.045,15.579-15.958,32.114-24.307,46.454c-16.4,28.168-39.293,59.538-85.885,54.556
		c-39.996-4.276-60.059-38.074-75.082-66.439c-11.911-22.488-22.813-48.748-38.352-68.06c-9.165-11.391-24.092-23.153-43.212-15.665
		c-16.023,6.275-26.919,26.607-34.57,40.512c-18.405,33.448-30.941,68.216-58.337,91.827
		c-13.442,11.585-30.578,20.927-56.717,18.366c-20.209-1.98-35.726-13.309-47.534-26.468c-25.032-27.898-35.93-60.872-55.096-92.907
		C32.498,57.721,20.872,40.14,0,39.432C0,26.468,0,13.504,0,0.54z"/>
	<path fill-rule="evenodd" clip-rule="evenodd" fill="#FFFFFF" d="M301.408,106.411c18.476-2.712,33.7,10.162,33.49,28.628
		c-0.139,12.15-8.412,22.615-17.825,26.468c-15.751,6.447-37.533-3.407-39.972-22.687c-0.545-4.309,0.277-12.376,2.701-17.285
		C282.146,116.788,289.822,108.112,301.408,106.411z"/>
</g>
</svg>
