<?xml version="1.0" encoding="utf-8"?>
<!-- Generator: Adobe Illustrator 15.1.0, SVG Export Plug-In . SVG Version: 6.00 Build 0)  -->
<!DOCTYPE svg PUBLIC "-//W3C//DTD SVG 1.1//EN" "http://www.w3.org/Graphics/SVG/1.1/DTD/svg11.dtd">
<svg version="1.1" id="Layer_1" xmlns="http://www.w3.org/2000/svg" xmlns:xlink="http://www.w3.org/1999/xlink" x="0px" y="0px"
	 width="612px" height="192.724px" viewBox="0 0 612 192.724" enable-background="new 0 0 612 192.724" xml:space="preserve">
<g>
	<path fill-rule="evenodd" clip-rule="evenodd" d="M0,0.541c44.55,2.717,64.73,31.476,82.104,64.279
		c7.865,14.85,15.834,31.884,24.847,48.074c8.252,14.822,19.021,33.265,34.57,38.891c19.299,6.984,33.034-4.815,41.052-14.044
		c15.636-17.996,27.814-47.328,38.352-67.52c14.316-27.433,33.985-61.905,72.921-68.6C317-2.36,335.66,5.476,348.942,15.125
		c13.043,9.475,24.956,24.296,32.95,37.811c8.399,14.2,15.884,29.701,24.307,46.454c7.899,15.711,15.966,31.996,27.548,43.212
		c7.124,6.898,19.505,13.954,34.57,9.723c16.46-4.622,27.966-22.626,36.19-37.271c9.376-16.695,16.722-33.835,24.848-49.154
		C546.894,32.837,567.775,3.278,612,0.541c0,12.964,0,25.928,0,38.892c-7.752,0.599-12.063,2.072-16.745,4.861
		c-15.968,9.513-25.555,28.998-34.57,46.454c-8.046,15.579-15.958,32.114-24.307,46.454c-16.401,28.168-39.294,59.538-85.886,54.556
		c-39.996-4.276-60.058-38.074-75.082-66.439c-11.91-22.488-22.813-48.748-38.351-68.06c-9.165-11.391-24.092-23.153-43.213-15.665
		c-16.023,6.275-26.919,26.607-34.57,40.512c-18.405,33.448-30.941,68.216-58.337,91.827
		c-13.442,11.585-30.578,20.927-56.717,18.366c-20.209-1.98-35.727-13.309-47.534-26.468c-25.032-27.898-35.93-60.872-55.096-92.907
		C32.499,57.722,20.872,40.141,0,39.433C0,26.469,0,13.505,0,0.541z"/>
	<path fill-rule="evenodd" clip-rule="evenodd" d="M301.409,106.412c18.476-2.712,33.701,10.162,33.49,28.628
		c-0.139,12.15-8.412,22.615-17.825,26.468c-15.751,6.447-37.533-3.407-39.972-22.687c-0.545-4.309,0.277-12.376,2.701-17.285
		C282.146,116.789,289.823,108.113,301.409,106.412z"/>
</g>
</svg>
